<svg width="195" height="194" viewBox="0 0 195 194" fill="none" xmlns="http://www.w3.org/2000/svg">
<path d="M194.957 96.5714C194.957 149.906 151.315 193.143 97.4787 193.143C43.6427 193.143 0 149.906 0 96.5714C0 43.2365 43.6427 0 97.4787 0C151.315 0 194.957 43.2365 194.957 96.5714Z" fill="#FFB703"/>
<path d="M100.413 30.5482L46 94.9116" stroke="#01822C" stroke-width="10"/>
<path d="M98.2135 25.2877L147.085 97.8238" stroke="#01822C" stroke-width="10"/>
<path d="M65.3007 120.651L131 120.692" stroke="#089A39" stroke-width="11" stroke-linecap="round" stroke-linejoin="bevel"/>
<path d="M65.3263 141.811C62.2842 141.781 59.672 144.21 59.4918 147.238C59.3116 150.265 61.6316 152.744 64.6737 152.775L65.3263 141.811ZM64.6737 152.775L130.674 153.439L131.326 142.475L65.3263 141.811L64.6737 152.775Z" fill="#089A39"/>
</svg>
