<svg width="195" height="259" viewBox="0 0 195 259" fill="none" xmlns="http://www.w3.org/2000/svg">
<ellipse cx="97.4787" cy="96.5714" rx="97.4787" ry="96.5714" fill="#FFB703"/>
<path d="M100.413 30.5482L46 94.9116" stroke="#01822C" stroke-width="10"/>
<path d="M98.2135 25.2877L147.085 97.8238" stroke="#01822C" stroke-width="10"/>
<path d="M65.3007 120.651L131 120.692" stroke="#089A39" stroke-width="11" stroke-linecap="round" stroke-linejoin="bevel"/>
<path d="M65.3263 141.811C62.2842 141.781 59.672 144.21 59.4918 147.238C59.3116 150.265 61.6316 152.744 64.6737 152.775L65.3263 141.811ZM64.6737 152.775L130.674 153.439L131.326 142.475L65.3263 141.811L64.6737 152.775Z" fill="#089A39"/>
<path d="M35.7188 220H27.3438V219.156H29.5625L27.2188 213.156H21L18.75 219.156H20.5C20.625 219.156 20.7396 219.167 20.8438 219.188C21.1146 219.229 21.25 219.5 21.25 220H15.5V219.156H17.5L24.3438 201.25H26.6562L34.0312 219.156H34.9688C35.0938 219.156 35.2083 219.167 35.3125 219.188C35.5833 219.229 35.7188 219.5 35.7188 220ZM26.8438 212.219L24.0625 205.031L21.375 212.219H26.8438ZM51.875 214.781C51.875 216.156 51.3854 217.323 50.4062 218.281C48.9896 219.635 46.9583 220.312 44.3125 220.312C42.0417 220.312 40.1042 219.781 38.5 218.719C38.5 219.073 38.4792 219.354 38.4375 219.562C38.3333 219.896 38 220.062 37.4375 220.062V213.438H38.6562C38.7396 214.542 38.9688 215.521 39.3438 216.375C40.2396 218.396 41.7917 219.406 44 219.406C44.5833 219.406 45.1146 219.323 45.5938 219.156C46.9271 218.656 47.5938 217.656 47.5938 216.156C47.5938 215.719 47.5 215.292 47.3125 214.875C46.875 214 45.7604 213.094 43.9688 212.156C41.9688 211.135 40.8438 210.542 40.5938 210.375C38.6146 209.146 37.625 207.667 37.625 205.938C37.625 204.771 38.0312 203.76 38.8438 202.906C40.1146 201.594 42.0104 200.938 44.5312 200.938C46.4479 200.938 48.2708 201.344 50 202.156C50 201.969 50.0104 201.802 50.0312 201.656C50.1354 201.26 50.4792 201.062 51.0625 201.062V206.719H49.8438C49.8229 205.594 49.5521 204.625 49.0312 203.812C48.1771 202.521 46.8958 201.875 45.1875 201.875C44.75 201.875 44.3333 201.938 43.9375 202.062C42.75 202.458 42.1562 203.271 42.1562 204.5C42.1562 204.979 42.2604 205.438 42.4688 205.875C42.9062 206.771 44 207.677 45.75 208.594C47.6667 209.615 48.7604 210.198 49.0312 210.344C50.9271 211.573 51.875 213.052 51.875 214.781ZM69.3125 214.781C69.3125 216.156 68.8229 217.323 67.8438 218.281C66.4271 219.635 64.3958 220.312 61.75 220.312C59.4792 220.312 57.5417 219.781 55.9375 218.719C55.9375 219.073 55.9167 219.354 55.875 219.562C55.7708 219.896 55.4375 220.062 54.875 220.062V213.438H56.0938C56.1771 214.542 56.4062 215.521 56.7812 216.375C57.6771 218.396 59.2292 219.406 61.4375 219.406C62.0208 219.406 62.5521 219.323 63.0312 219.156C64.3646 218.656 65.0312 217.656 65.0312 216.156C65.0312 215.719 64.9375 215.292 64.75 214.875C64.3125 214 63.1979 213.094 61.4062 212.156C59.4062 211.135 58.2812 210.542 58.0312 210.375C56.0521 209.146 55.0625 207.667 55.0625 205.938C55.0625 204.771 55.4688 203.76 56.2812 202.906C57.5521 201.594 59.4479 200.938 61.9688 200.938C63.8854 200.938 65.7083 201.344 67.4375 202.156C67.4375 201.969 67.4479 201.802 67.4688 201.656C67.5729 201.26 67.9167 201.062 68.5 201.062V206.719H67.2812C67.2604 205.594 66.9896 204.625 66.4688 203.812C65.6146 202.521 64.3333 201.875 62.625 201.875C62.1875 201.875 61.7708 201.938 61.375 202.062C60.1875 202.458 59.5938 203.271 59.5938 204.5C59.5938 204.979 59.6979 205.438 59.9062 205.875C60.3438 206.771 61.4375 207.677 63.1875 208.594C65.1042 209.615 66.1979 210.198 66.4688 210.344C68.3646 211.573 69.3125 213.052 69.3125 214.781ZM86.9688 207.25H86.0625L85.375 205.094C85.3125 204.906 85.2396 204.719 85.1562 204.531C84.5104 202.906 83.3333 202.094 81.625 202.094H78.0938V209.875H84.0938V210.812H78.0938V219.156H81.625C82.0208 219.156 82.3958 219.115 82.75 219.031C83.9375 218.719 84.8021 217.76 85.3438 216.156L86.0625 214H86.9688L86.8438 220H71.2188V219.156H73.7188V202.094H71.2188V201.25H86.8438L86.9688 207.25ZM102.219 220H91.9062V219.156H94.875V202.094H94.3438C93.6354 202.094 93.0312 202.229 92.5312 202.5C91.8021 202.917 91.2083 203.792 90.75 205.125L89.7812 207.938H88.8438L88.9688 201.25H105.156L105.281 207.938H104.344L103.375 205.125C103.229 204.729 103.094 204.385 102.969 204.094C102.344 202.76 101.281 202.094 99.7812 202.094H99.25V219.156H101.375C101.812 219.198 102.094 219.479 102.219 220ZM126.125 220H125.5C125.146 220 124.854 219.938 124.625 219.812C124.25 219.604 123.812 218.865 123.312 217.594L119.938 208.812L115.812 220H115.188C114.833 220 114.542 219.938 114.312 219.812C113.938 219.604 113.5 218.865 113 217.594L107 202.094H105.438V201.25H113.906V202.094H111.406L116.312 215.75L119.375 207.406L117 201.25H124.25V202.094L121.75 202.062L126.594 215.469L131 202.094H128.5V201.25H133.656V202.094H132.094L126.125 220ZM143.656 220H134.281V219.156H136.781V202.094H134.281V201.25H143.656V202.094H141.156V219.156H142.812C143.25 219.198 143.531 219.479 143.656 220ZM160.438 214.781C160.438 216.156 159.948 217.323 158.969 218.281C157.552 219.635 155.521 220.312 152.875 220.312C150.604 220.312 148.667 219.781 147.062 218.719C147.062 219.073 147.042 219.354 147 219.562C146.896 219.896 146.562 220.062 146 220.062V213.438H147.219C147.302 214.542 147.531 215.521 147.906 216.375C148.802 218.396 150.354 219.406 152.562 219.406C153.146 219.406 153.677 219.323 154.156 219.156C155.49 218.656 156.156 217.656 156.156 216.156C156.156 215.719 156.062 215.292 155.875 214.875C155.438 214 154.323 213.094 152.531 212.156C150.531 211.135 149.406 210.542 149.156 210.375C147.177 209.146 146.188 207.667 146.188 205.938C146.188 204.771 146.594 203.76 147.406 202.906C148.677 201.594 150.573 200.938 153.094 200.938C155.01 200.938 156.833 201.344 158.562 202.156C158.562 201.969 158.573 201.802 158.594 201.656C158.698 201.26 159.042 201.062 159.625 201.062V206.719H158.406C158.385 205.594 158.115 204.625 157.594 203.812C156.74 202.521 155.458 201.875 153.75 201.875C153.312 201.875 152.896 201.938 152.5 202.062C151.312 202.458 150.719 203.271 150.719 204.5C150.719 204.979 150.823 205.438 151.031 205.875C151.469 206.771 152.562 207.677 154.312 208.594C156.229 209.615 157.323 210.198 157.594 210.344C159.49 211.573 160.438 213.052 160.438 214.781ZM178.094 207.25H177.188L176.5 205.094C176.438 204.906 176.365 204.719 176.281 204.531C175.635 202.906 174.458 202.094 172.75 202.094H169.219V209.875H175.219V210.812H169.219V219.156H172.75C173.146 219.156 173.521 219.115 173.875 219.031C175.062 218.719 175.927 217.76 176.469 216.156L177.188 214H178.094L177.969 220H162.344V219.156H164.844V202.094H162.344V201.25H177.969L178.094 207.25ZM18.5312 240.094H16.75V248.812H18.4062C20.6354 248.792 21.7708 247.344 21.8125 244.469C21.7917 241.594 20.6979 240.135 18.5312 240.094ZM19.875 258H9.875V257.156H12.375V240.094H9.875V239.25H20.3125C21.6875 239.25 22.875 239.49 23.875 239.969C25.625 240.823 26.5 242.229 26.5 244.188C26.5 244.979 26.3646 245.698 26.0938 246.344C25.1771 248.615 22.9167 249.75 19.3125 249.75H16.75V257.156H19.0312C19.4688 257.198 19.75 257.479 19.875 258ZM36.8125 258H27.4375V257.156H29.9375V240.094H27.4375V239.25H37.875C39.5417 239.25 40.9583 239.646 42.125 240.438C43.5 241.375 44.1875 242.615 44.1875 244.156C44.1875 244.615 44.125 245.062 44 245.5C43.5 247.271 42.1562 248.458 39.9688 249.062L44.7812 257.188H45.1875C45.2917 257.188 45.3958 257.198 45.5 257.219C45.8333 257.281 46 257.542 46 258L40.5 258.031L35.8438 249.438H34.3125V257.156H36.8125V258ZM36 240.094H34.3125V248.5H36.25C36.875 248.5 37.4271 248.344 37.9062 248.031C38.9896 247.344 39.5312 246.104 39.5312 244.312C39.5312 243.729 39.4583 243.167 39.3125 242.625C38.8125 240.938 37.7083 240.094 36 240.094ZM57.0938 238.938C59.4479 238.938 61.5 239.573 63.25 240.844C65.6875 242.635 66.9062 245.25 66.9062 248.688C66.9062 251.521 65.9375 253.854 64 255.688C62.1042 257.438 59.7708 258.312 57 258.312C54.5625 258.312 52.4375 257.615 50.625 256.219C48.2708 254.385 47.0938 251.833 47.0938 248.562C47.0938 245.708 48.0833 243.375 50.0625 241.562C51.9792 239.812 54.3229 238.938 57.0938 238.938ZM57.0938 257.406C58.0521 257.406 58.8542 257.198 59.5 256.781C61.1667 255.719 62 252.969 62 248.531C62 246.656 61.8438 245.083 61.5312 243.812C60.8646 241.167 59.3542 239.844 57 239.844C56.2917 239.844 55.6562 239.969 55.0938 240.219C53.0312 241.094 52 243.917 52 248.688C52 251.188 52.2604 253.125 52.7812 254.5C53.5312 256.438 54.9688 257.406 57.0938 257.406ZM77.2812 240.094H75.5V248.812H77.1562C79.3854 248.792 80.5208 247.344 80.5625 244.469C80.5417 241.594 79.4479 240.135 77.2812 240.094ZM78.625 258H68.625V257.156H71.125V240.094H68.625V239.25H79.0625C80.4375 239.25 81.625 239.49 82.625 239.969C84.375 240.823 85.25 242.229 85.25 244.188C85.25 244.979 85.1146 245.698 84.8438 246.344C83.9271 248.615 81.6667 249.75 78.0625 249.75H75.5V257.156H77.7812C78.2188 257.198 78.5 257.479 78.625 258ZM101.938 245.25H101.031L100.344 243.094C100.281 242.906 100.208 242.719 100.125 242.531C99.4792 240.906 98.3021 240.094 96.5938 240.094H93.0625V247.875H99.0625V248.812H93.0625V257.156H96.5938C96.9896 257.156 97.3646 257.115 97.7188 257.031C98.9062 256.719 99.7708 255.76 100.312 254.156L101.031 252H101.938L101.812 258H86.1875V257.156H88.6875V240.094H86.1875V239.25H101.812L101.938 245.25ZM113.344 258H103.969V257.156H106.469V240.094H103.969V239.25H114.406C116.073 239.25 117.49 239.646 118.656 240.438C120.031 241.375 120.719 242.615 120.719 244.156C120.719 244.615 120.656 245.062 120.531 245.5C120.031 247.271 118.688 248.458 116.5 249.062L121.312 257.188H121.719C121.823 257.188 121.927 257.198 122.031 257.219C122.365 257.281 122.531 257.542 122.531 258L117.031 258.031L112.375 249.438H110.844V257.156H113.344V258ZM112.531 240.094H110.844V248.5H112.781C113.406 248.5 113.958 248.344 114.438 248.031C115.521 247.344 116.062 246.104 116.062 244.312C116.062 243.729 115.99 243.167 115.844 242.625C115.344 240.938 114.24 240.094 112.531 240.094ZM136.375 258H126.062V257.156H129.031V240.094H128.5C127.792 240.094 127.188 240.229 126.688 240.5C125.958 240.917 125.365 241.792 124.906 243.125L123.938 245.938H123L123.125 239.25H139.312L139.438 245.938H138.5L137.531 243.125C137.385 242.729 137.25 242.385 137.125 242.094C136.5 240.76 135.438 240.094 133.938 240.094H133.406V257.156H135.531C135.969 257.198 136.25 257.479 136.375 258ZM149.906 258H140.531V257.156H143.031V240.094H140.531V239.25H149.906V240.094H147.406V257.156H149.062C149.5 257.198 149.781 257.479 149.906 258ZM166.906 245.25H166L165.312 243.094C165.25 242.906 165.177 242.719 165.094 242.531C164.448 240.906 163.271 240.094 161.562 240.094H158.031V247.875H164.031V248.812H158.031V257.156H161.562C161.958 257.156 162.333 257.115 162.688 257.031C163.875 256.719 164.74 255.76 165.281 254.156L166 252H166.906L166.781 258H151.156V257.156H153.656V240.094H151.156V239.25H166.781L166.906 245.25ZM184.469 252.781C184.469 254.156 183.979 255.323 183 256.281C181.583 257.635 179.552 258.312 176.906 258.312C174.635 258.312 172.698 257.781 171.094 256.719C171.094 257.073 171.073 257.354 171.031 257.562C170.927 257.896 170.594 258.062 170.031 258.062V251.438H171.25C171.333 252.542 171.562 253.521 171.938 254.375C172.833 256.396 174.385 257.406 176.594 257.406C177.177 257.406 177.708 257.323 178.188 257.156C179.521 256.656 180.188 255.656 180.188 254.156C180.188 253.719 180.094 253.292 179.906 252.875C179.469 252 178.354 251.094 176.562 250.156C174.562 249.135 173.438 248.542 173.188 248.375C171.208 247.146 170.219 245.667 170.219 243.938C170.219 242.771 170.625 241.76 171.438 240.906C172.708 239.594 174.604 238.938 177.125 238.938C179.042 238.938 180.865 239.344 182.594 240.156C182.594 239.969 182.604 239.802 182.625 239.656C182.729 239.26 183.073 239.062 183.656 239.062V244.719H182.438C182.417 243.594 182.146 242.625 181.625 241.812C180.771 240.521 179.49 239.875 177.781 239.875C177.344 239.875 176.927 239.938 176.531 240.062C175.344 240.458 174.75 241.271 174.75 242.5C174.75 242.979 174.854 243.438 175.062 243.875C175.5 244.771 176.594 245.677 178.344 246.594C180.26 247.615 181.354 248.198 181.625 248.344C183.521 249.573 184.469 251.052 184.469 252.781Z" fill="#01822C"/>
</svg>
